<svg width="98" height="97" viewBox="0 0 98 97" fill="none" xmlns="http://www.w3.org/2000/svg">
<path d="M49 0.8125C22.05 0.8125 0 22.2719 0 48.5C0 74.7281 22.05 96.1875 49 96.1875C75.95 96.1875 98 74.7281 98 48.5C98 22.2719 75.95 0.8125 49 0.8125ZM71.05 57.6969C67.2 60.7625 61.95 62.4656 56 62.4656C54.25 62.4656 52.5 62.4656 50.75 62.125C50.4 62.125 49.7 62.4656 49.7 62.8063V70.6406C49.35 73.7062 47.95 76.4312 45.5 78.475C43.75 79.8375 41.3 80.5187 39.2 80.5187C38.5 80.5187 37.8 80.5187 37.1 80.1781C33.25 79.1562 30.8 75.75 31.5 71.6625L31.85 70.6406C31.85 69.9594 32.9 69.2781 33.6 69.6188L39.2 70.6406C39.2 70.6406 39.55 70.6406 39.9 70.6406C39.9 70.6406 40.25 70.3 40.25 69.9594V36.5781C40.25 35.2156 41.3 33.8531 43.05 33.8531H47.6C49 33.8531 50.4 34.875 50.4 36.5781V51.9062C50.4 52.2469 50.75 52.5875 51.1 52.5875C57.4 53.95 62.3 52.9281 65.8 50.5438C69.3 47.8188 70.35 43.05 70.35 39.9844C70.35 36.5781 68.25 33.1719 64.75 30.4469C60.9 27.3812 55.3 26.0187 49.7 26.0187C38.5 26.0187 29.75 32.4906 29.75 39.9844C29.75 44.0719 30.1 46.4562 32.9 49.5219C33.25 49.8625 33.25 50.2031 33.25 50.5438C33.25 50.8844 33.25 51.225 32.9 51.5656C29.4 54.9719 23.45 53.6094 21.7 49.1813C20.65 46.1156 20.3 43.3906 20.3 39.9844C20.3 33.5125 23.45 27.7219 29.4 23.2938C35 19.2063 42.35 16.8219 50.05 16.8219C57.75 16.8219 65.1 19.2063 70.7 23.2938C76.65 27.7219 80.15 33.5125 80.15 39.9844C78.75 47.4781 75.95 53.6094 71.05 57.6969Z" fill="url(#paint0_linear)"/>
<defs>
<linearGradient id="paint0_linear" x1="49" y1="0.8125" x2="49" y2="96.1875" gradientUnits="userSpaceOnUse">
<stop stop-color="#62B4F1"/>
<stop offset="1" stop-color="#086FBD"/>
</linearGradient>
</defs>
</svg>
