<svg width="173" height="175" viewBox="0 0 173 175" fill="none" xmlns="http://www.w3.org/2000/svg">
<path d="M138.653 61.1377C135.163 62.8632 133.663 67.0618 135.382 70.5553C137.054 73.9549 141.01 75.3533 144.498 73.8736C148.07 72.3579 149.813 68.2945 148.334 64.7067C146.798 60.9814 142.265 59.3518 138.653 61.1377Z" stroke="#A88771" stroke-width="6" stroke-linecap="round" stroke-linejoin="round"/>
<path d="M137.686 58.1514C137.686 58.1514 119.182 46.7948 106.837 53.1984C73.358 70.565 97.381 122.282 97.381 122.282" stroke="#A88771" stroke-width="6" stroke-linecap="round" stroke-linejoin="round"/>
<path d="M98.3372 125.145C98.3703 125.221 98.4054 125.294 98.4423 125.363C98.2929 125.574 98.1621 125.816 98.0605 126.095C98.0552 126.109 98.0502 126.123 98.0452 126.137C98.0048 126.146 97.9642 126.155 97.9234 126.164C97.7407 125.974 97.5212 125.795 97.258 125.639C97.2193 125.616 97.1807 125.594 97.1421 125.574C97.1374 125.555 97.1326 125.536 97.1276 125.517C97.1596 125.469 97.1905 125.419 97.22 125.369C97.4908 125.274 97.7274 125.151 97.9333 125.01C98.066 125.055 98.1963 125.089 98.3236 125.114C98.328 125.124 98.3326 125.135 98.3372 125.145ZM104.632 119.257C105.274 118.281 105.968 117.281 106.706 116.354C108.053 114.664 109.21 113.663 110.055 113.326C110.393 113.19 110.553 113.214 110.632 113.235C110.726 113.26 111.047 113.371 111.551 113.951C112.066 114.543 112.096 114.84 112.098 114.857C112.099 114.872 112.099 114.884 112.091 114.914C112.08 114.951 112.049 115.035 111.961 115.169C111.513 115.846 110.335 116.739 108.384 117.691C107.17 118.283 105.865 118.802 104.632 119.257ZM98.2263 116.113C97.9998 114.96 97.793 113.757 97.6635 112.578C97.4158 110.322 97.5314 108.754 97.8846 107.943C97.9556 107.78 98.0169 107.696 98.0489 107.66C98.0762 107.628 98.092 107.619 98.1069 107.611C98.1235 107.602 98.3921 107.464 99.1811 107.585C99.9802 107.708 100.262 107.927 100.335 107.993C100.388 108.043 100.48 108.143 100.538 108.463C100.688 109.297 100.451 110.747 99.7064 112.739C99.2774 113.887 98.7523 115.034 98.2263 116.113ZM91.5623 118.067C90.6115 117.426 89.6393 116.732 88.7431 116.004C86.997 114.584 86.0311 113.414 85.7552 112.647C85.702 112.498 85.6947 112.416 85.694 112.387C85.6934 112.367 85.6951 112.362 85.6991 112.351C85.7052 112.335 85.822 112.035 86.5317 111.561C87.2425 111.087 87.6336 111.042 87.7615 111.04C87.8577 111.039 87.9969 111.056 88.2469 111.243C88.91 111.737 89.7074 112.944 90.495 114.917C90.9034 115.94 91.2529 117.018 91.5623 118.067ZM88.2502 124.352C86.9899 124.647 85.6567 124.93 84.3553 125.113C82.1364 125.425 80.6416 125.345 79.9045 125.037C79.7636 124.978 79.7033 124.931 79.6875 124.917C79.6849 124.915 79.6831 124.913 79.6818 124.912C79.6818 124.912 79.6818 124.912 79.6817 124.912C79.68 124.908 79.6482 124.846 79.6306 124.684C79.6123 124.515 79.6102 124.243 79.674 123.841C79.8013 123.038 80.0267 122.721 80.1248 122.612C80.2088 122.519 80.3481 122.41 80.6884 122.338C81.545 122.155 83.0082 122.346 85.0038 123.029C86.1009 123.404 87.2047 123.872 88.2502 124.352ZM96.3194 134.363C96.5922 135.758 96.8552 137.257 96.9881 138.708C97.1856 140.862 97.0232 142.275 96.6879 142.954C96.6239 143.084 96.5736 143.142 96.5538 143.162C96.5388 143.178 96.5296 143.184 96.5099 143.193C96.4742 143.209 96.1673 143.333 95.3449 143.183C94.5486 143.038 94.2543 142.808 94.1638 142.72C94.0879 142.647 93.9853 142.515 93.9261 142.167C93.7768 141.288 94.0328 139.805 94.7921 137.801C95.2353 136.63 95.7771 135.462 96.3194 134.363ZM103.302 132.61C104.359 133.323 105.456 134.103 106.452 134.928C108.084 136.28 108.967 137.376 109.22 138.088C109.269 138.226 109.276 138.303 109.277 138.33C109.278 138.35 109.276 138.354 109.273 138.362L109.273 138.363L109.273 138.363C109.269 138.372 109.173 138.645 108.546 139.091C107.927 139.532 107.59 139.571 107.495 139.574C107.42 139.576 107.284 139.568 107.023 139.39C106.35 138.93 105.515 137.799 104.648 135.955C104.137 134.869 103.695 133.716 103.302 132.61ZM106.629 126.097C107.927 125.843 109.316 125.605 110.662 125.473C112.814 125.261 114.275 125.391 114.999 125.712C115.116 125.764 115.177 125.805 115.204 125.827C115.224 125.897 115.267 126.133 115.174 126.642C115.051 127.321 114.85 127.573 114.77 127.655C114.693 127.735 114.544 127.849 114.177 127.924C113.293 128.107 111.839 127.93 109.91 127.327C108.792 126.978 107.676 126.539 106.629 126.097ZM115.224 125.847C115.223 125.847 115.219 125.843 115.213 125.835C115.222 125.843 115.225 125.847 115.224 125.847ZM115.199 125.81C115.197 125.806 115.197 125.804 115.197 125.804C115.197 125.804 115.198 125.806 115.199 125.81ZM86.8265 132.89C87.7944 132.398 88.813 131.952 89.8101 131.544C89.2142 132.482 88.5747 133.439 87.8985 134.336C86.5474 136.127 85.3906 137.199 84.5634 137.565C84.3946 137.639 84.2857 137.662 84.2296 137.669C84.1804 137.675 84.158 137.671 84.1421 137.666L84.1419 137.666C84.1266 137.662 83.8538 137.593 83.3811 137.012C82.9075 136.431 82.8807 136.132 82.878 136.086L82.878 136.086C82.876 136.052 82.868 135.917 83.0729 135.612C83.5879 134.847 84.8453 133.896 86.8265 132.89Z" stroke="#F74700" stroke-width="6" stroke-linecap="round" stroke-linejoin="round"/>
<path d="M98.2551 125.303C98.2629 125.32 98.2708 125.336 98.2787 125.353C98.1816 125.502 98.0938 125.666 98.0185 125.846C97.8853 125.724 97.7352 125.608 97.5661 125.502C97.7454 125.43 97.9086 125.344 98.0567 125.25C98.1236 125.27 98.1897 125.288 98.2551 125.303ZM87.7258 132.58C88.4417 132.217 89.1877 131.88 89.9307 131.566C89.4729 132.27 88.9904 132.975 88.4861 133.643C87.2247 135.315 86.1679 136.283 85.4428 136.603C85.2872 136.672 85.2041 136.685 85.1717 136.687C85.1286 136.671 84.9159 136.571 84.5656 136.141C84.3524 135.88 84.2453 135.687 84.1926 135.566C84.1422 135.45 84.1387 135.394 84.1382 135.386L84.1382 135.385C84.1377 135.378 84.1369 135.365 84.1481 135.329C84.1614 135.286 84.1967 135.198 84.2878 135.062C84.74 134.39 85.8768 133.519 87.7258 132.58ZM85.1553 136.685C85.1556 136.685 85.1609 136.685 85.1702 136.687C85.1597 136.687 85.1551 136.686 85.1553 136.685ZM85.1748 136.688C85.175 136.688 85.1752 136.688 85.1755 136.688L85.1748 136.688ZM106.833 126.123C107.855 125.934 108.918 125.764 109.953 125.663C111.962 125.465 113.284 125.593 113.911 125.871C113.953 125.889 113.984 125.905 114.007 125.918C114.018 126.011 114.023 126.202 113.964 126.529C113.853 127.135 113.68 127.332 113.637 127.376C113.597 127.417 113.495 127.509 113.182 127.573C112.406 127.734 111.086 127.581 109.288 127.02C108.459 126.76 107.63 126.448 106.833 126.123ZM114.063 125.955C114.063 125.955 114.06 125.953 114.056 125.949C114.061 125.952 114.063 125.955 114.063 125.955ZM113.996 125.854C113.994 125.848 113.993 125.845 113.993 125.845C113.993 125.845 113.994 125.848 113.996 125.854ZM107.718 118.016C106.772 118.478 105.765 118.892 104.787 119.264C105.29 118.516 105.824 117.766 106.385 117.061C107.641 115.485 108.697 114.583 109.437 114.288C109.72 114.175 109.827 114.203 109.856 114.21L109.857 114.211C109.898 114.221 110.166 114.299 110.619 114.82C110.993 115.25 111.068 115.49 111.081 115.548C111.072 115.576 111.048 115.632 110.987 115.725C110.599 116.312 109.539 117.128 107.718 118.016ZM111.084 115.562C111.084 115.562 111.084 115.561 111.083 115.559C111.084 115.561 111.084 115.562 111.084 115.562ZM111.083 115.543C111.083 115.533 111.085 115.527 111.085 115.527C111.086 115.527 111.086 115.532 111.083 115.543ZM99.5042 113.491C99.1747 114.373 98.7839 115.255 98.3813 116.102C98.2144 115.207 98.0666 114.289 97.9676 113.387C97.7363 111.281 97.8508 109.859 98.1594 109.15C98.2192 109.013 98.2666 108.952 98.2816 108.935C98.2827 108.934 98.2837 108.933 98.2845 108.932L98.2855 108.931C98.2902 108.929 98.2984 108.926 98.3105 108.923C98.3344 108.915 98.3773 108.905 98.4441 108.897C98.5798 108.881 98.8116 108.875 99.165 108.93C99.8851 109.04 100.11 109.233 100.142 109.262C100.143 109.263 100.143 109.263 100.144 109.264C100.161 109.279 100.227 109.338 100.273 109.594C100.403 110.319 100.198 111.633 99.5042 113.491ZM90.8895 115.668C91.2014 116.449 91.4765 117.265 91.7247 118.074C90.9858 117.565 90.2448 117.025 89.5531 116.462C87.9228 115.137 87.0571 114.07 86.8184 113.407C86.7893 113.326 86.7782 113.275 86.7743 113.247C86.8127 113.18 86.969 112.953 87.4699 112.619C88.1126 112.19 88.4422 112.164 88.5147 112.164L88.5157 112.164C88.5569 112.163 88.6468 112.162 88.8508 112.314C89.4252 112.743 90.155 113.828 90.8895 115.668ZM85.8704 123.367C86.7086 123.654 87.5516 123.999 88.3665 124.361C87.3606 124.589 86.3193 124.798 85.2995 124.941C83.2271 125.233 81.8752 125.149 81.238 124.883C81.1804 124.859 81.1427 124.84 81.1192 124.826C81.0968 124.735 81.0585 124.482 81.1392 123.973C81.2539 123.25 81.4525 122.991 81.5132 122.924C81.56 122.872 81.6514 122.788 81.9369 122.727C82.6841 122.568 84.0102 122.731 85.8704 123.367ZM81.086 124.802C81.0864 124.802 81.0902 124.805 81.0958 124.811C81.0883 124.805 81.0855 124.802 81.086 124.802ZM81.1303 124.863C81.1312 124.865 81.1316 124.866 81.1316 124.866C81.1315 124.866 81.1311 124.865 81.1303 124.863ZM96.437 134.394C96.6502 135.527 96.8444 136.715 96.9501 137.868C97.1344 139.879 96.9765 141.152 96.6885 141.736C96.6492 141.815 96.6192 141.856 96.6058 141.872C96.5983 141.875 96.5868 141.879 96.5706 141.882C96.5395 141.89 96.4881 141.9 96.4121 141.906C96.2577 141.917 96.0081 141.912 95.6408 141.845C94.9236 141.715 94.6866 141.512 94.6359 141.463C94.6 141.429 94.5198 141.345 94.4701 141.053C94.3395 140.284 94.5621 138.939 95.2702 137.07C95.6128 136.165 96.019 135.262 96.437 134.394ZM103.435 132.644C104.263 133.214 105.101 133.825 105.872 134.463C107.396 135.725 108.184 136.722 108.402 137.335C108.428 137.408 108.438 137.454 108.442 137.48C108.406 137.545 108.267 137.747 107.842 138.05C107.285 138.446 107.007 138.465 106.965 138.466C106.964 138.466 106.963 138.466 106.962 138.466C106.937 138.467 106.849 138.471 106.639 138.328C106.055 137.928 105.292 136.911 104.483 135.192C104.095 134.366 103.749 133.497 103.435 132.644ZM108.443 137.508C108.443 137.507 108.442 137.502 108.444 137.493C108.445 137.504 108.444 137.508 108.443 137.508ZM108.452 137.461C108.453 137.459 108.453 137.458 108.453 137.458C108.453 137.458 108.453 137.459 108.452 137.461ZM86.7734 113.219C86.774 113.219 86.7745 113.225 86.773 113.235C86.772 113.223 86.7727 113.218 86.7734 113.219ZM86.7636 113.268C86.7636 113.268 86.7639 113.267 86.7644 113.266L86.7636 113.268Z" stroke="#F74700" stroke-width="6" stroke-linecap="round" stroke-linejoin="round"/>
<path d="M91.6768 118.064C91.1503 117.691 90.6296 117.301 90.1362 116.9C88.6163 115.664 87.8462 114.697 87.643 114.132C87.6372 114.116 87.6324 114.102 87.6285 114.09C87.6946 114.006 87.8483 113.846 88.1753 113.627C88.7529 113.242 89.0239 113.236 89.0435 113.236C89.0572 113.236 89.0622 113.237 89.0744 113.241C89.0915 113.247 89.1457 113.269 89.2372 113.337C89.7271 113.703 90.3922 114.671 91.0762 116.385C91.2944 116.931 91.4933 117.497 91.6768 118.064ZM87.5843 114.154C87.5842 114.154 87.5848 114.153 87.5861 114.15C87.585 114.153 87.5843 114.154 87.5843 114.154ZM86.5074 123.69C87.0946 123.891 87.6847 124.123 88.2649 124.37C87.5176 124.529 86.7577 124.673 86.0106 124.778C84.0781 125.05 82.8623 124.963 82.3204 124.737C82.3173 124.736 82.3143 124.734 82.3113 124.733C82.2998 124.626 82.2956 124.426 82.3473 124.101C82.45 123.453 82.6231 123.25 82.6482 123.222C82.6487 123.221 82.6492 123.221 82.6497 123.22C82.6634 123.205 82.7145 123.146 82.9384 123.098C83.5811 122.961 84.7764 123.098 86.5074 123.69ZM82.3299 124.834C82.3299 124.834 82.3293 124.832 82.3283 124.829C82.3295 124.832 82.33 124.834 82.3299 124.834ZM96.3575 134.443C96.5111 135.31 96.6446 136.199 96.7241 137.066C96.8958 138.94 96.7421 140.082 96.4993 140.574C96.4914 140.59 96.4844 140.603 96.4784 140.614C96.3793 140.63 96.1503 140.645 95.7334 140.569C95.0915 140.452 94.9092 140.277 94.8966 140.265C94.8851 140.253 94.8763 140.243 94.864 140.218C94.8495 140.189 94.8212 140.119 94.7993 139.99C94.6867 139.328 94.8773 138.113 95.5367 136.373C95.7822 135.725 96.0631 135.076 96.3575 134.443ZM96.5388 140.6C96.5388 140.6 96.5379 140.601 96.536 140.601C96.5378 140.601 96.5388 140.6 96.5388 140.6ZM103.388 132.696C103.984 133.119 104.575 133.562 105.129 134.02C106.548 135.196 107.248 136.098 107.432 136.617C107.436 136.628 107.439 136.639 107.442 136.648C107.382 136.724 107.25 136.865 106.98 137.057C106.731 137.235 106.55 137.323 106.435 137.366C106.325 137.408 106.274 137.409 106.269 137.41L106.269 137.41C106.268 137.41 106.268 137.41 106.268 137.41C106.266 137.41 106.264 137.41 106.252 137.406C106.234 137.4 106.178 137.379 106.083 137.315C105.583 136.973 104.889 136.065 104.137 134.465C103.867 133.89 103.619 133.293 103.388 132.696ZM107.487 136.582C107.487 136.582 107.486 136.584 107.484 136.587C107.486 136.584 107.487 136.582 107.487 136.582ZM108.505 126.726C107.957 126.555 107.408 126.358 106.87 126.15C107.606 126.025 108.354 125.916 109.086 125.844C110.934 125.662 112.117 125.782 112.663 126.013C112.662 126.101 112.653 126.234 112.619 126.421C112.522 126.951 112.377 127.1 112.367 127.11L112.366 127.111C112.366 127.111 112.366 127.111 112.366 127.111C112.358 127.119 112.297 127.186 112.043 127.239C111.37 127.378 110.177 127.249 108.505 126.726ZM112.651 125.872C112.651 125.872 112.652 125.875 112.653 125.882C112.651 125.876 112.651 125.873 112.651 125.872ZM88.3941 132.286C88.8634 132.047 89.3467 131.821 89.8336 131.606C89.5189 132.074 89.1931 132.538 88.8569 132.983C87.6812 134.542 86.7198 135.409 86.0921 135.686C86.0264 135.715 85.9799 135.731 85.9496 135.739C85.8794 135.696 85.7277 135.583 85.5059 135.311C85.2356 134.979 85.1686 134.789 85.1535 134.729C85.1635 134.699 85.1903 134.637 85.2571 134.538C85.6494 133.955 86.6712 133.16 88.3941 132.286ZM85.9044 135.748C85.9045 135.747 85.9087 135.747 85.9163 135.747C85.908 135.748 85.9042 135.748 85.9044 135.748ZM85.9854 135.759C85.9912 135.761 85.994 135.762 85.994 135.762C85.9939 135.762 85.9911 135.761 85.9854 135.759ZM85.1496 134.708C85.1497 134.708 85.1502 134.71 85.1506 134.715C85.1496 134.71 85.1494 134.708 85.1496 134.708ZM85.1508 134.737C85.1502 134.746 85.1489 134.751 85.1484 134.751C85.1478 134.751 85.1481 134.747 85.1508 134.737ZM104.764 119.255C105.124 118.737 105.499 118.225 105.889 117.736C107.059 116.268 108.018 115.461 108.658 115.206C108.784 115.155 108.859 115.143 108.89 115.14C108.915 115.138 108.922 115.14 108.927 115.141L108.928 115.141C108.933 115.143 108.983 115.156 109.079 115.22C109.18 115.288 109.337 115.415 109.539 115.649C109.779 115.924 109.873 116.103 109.909 116.189C109.899 116.206 109.886 116.228 109.868 116.255C109.536 116.757 108.589 117.5 106.892 118.327C106.205 118.663 105.482 118.971 104.764 119.255ZM109.929 116.248C109.929 116.248 109.928 116.246 109.928 116.242C109.929 116.246 109.929 116.248 109.929 116.248ZM109.931 116.145C109.932 116.141 109.933 116.138 109.933 116.138C109.933 116.138 109.932 116.14 109.931 116.145ZM98.3422 116.069C98.2328 115.433 98.1374 114.792 98.0679 114.159C97.8523 112.196 97.9658 110.913 98.2318 110.302C98.2542 110.251 98.2729 110.215 98.2869 110.191C98.3745 110.174 98.5801 110.154 98.9599 110.213C99.2819 110.262 99.4873 110.329 99.6083 110.382C99.7248 110.433 99.7654 110.47 99.7687 110.473C99.7702 110.475 99.7702 110.473 99.7757 110.484C99.7837 110.5 99.809 110.555 99.8301 110.672C99.942 111.294 99.768 112.478 99.1215 114.209C98.8882 114.833 98.6218 115.457 98.3422 116.069ZM98.3152 110.151C98.3153 110.151 98.313 110.154 98.308 110.159C98.3126 110.153 98.3151 110.15 98.3152 110.151ZM98.2414 110.203C98.2371 110.204 98.2349 110.205 98.2348 110.205C98.2347 110.205 98.2368 110.204 98.2414 110.203Z" stroke="#F74700" stroke-width="6" stroke-linecap="round" stroke-linejoin="round"/>
<path d="M97.1352 124.757C97.2553 124.567 97.4665 124.418 97.7323 124.367C97.9952 124.317 98.2209 124.378 98.3786 124.497C98.5749 124.645 98.673 124.829 98.7042 125.015C98.736 125.205 98.7033 125.434 98.5546 125.664C98.2711 126.102 97.8131 126.193 97.4265 125.986C97.2489 125.891 97.1008 125.713 97.0363 125.459C96.971 125.203 97.013 124.95 97.1352 124.757Z" stroke="#A88771" stroke-width="5" stroke-linecap="round" stroke-linejoin="round"/>
<path d="M15.3401 90.0865C14.5162 91.1577 18.5229 102.782 33.919 101.969C49.3151 101.156 65.3623 77.8412 74.3647 76.7579C83.3671 75.6747 82.7783 76.9852 88.1693 77.1308C88.1693 77.1308 85.1811 72.4347 78.0438 71.2629C70.9064 70.0911 68.8584 69.866 62.8438 72.986C56.8291 76.106 39.6073 89.1779 31.1954 90.6905C22.7836 92.2031 16.1639 89.0153 15.3401 90.0865Z" stroke="#A88771" stroke-width="4" stroke-linecap="round" stroke-linejoin="round"/>
<path d="M17.2934 92.6639C16.4445 93.5415 19.1496 101.971 33.3892 100.056C47.6287 98.1408 64.3698 79.1989 72.7473 77.6208C81.1248 76.0427 80.4721 77.0809 85.4217 76.735C85.4217 76.735 83.0683 73.4455 76.5981 73.165C70.1279 72.8846 68.2618 72.8879 62.4621 75.7497C56.6624 78.6114 39.7061 89.9271 31.8358 91.7791C23.9655 93.6311 18.1422 91.7863 17.2934 92.6639Z" stroke="#A88771" stroke-width="4" stroke-linecap="round" stroke-linejoin="round"/>
<path d="M19.6421 94.3164C18.7515 95.0302 20.2864 100.625 33.7398 97.6295C47.1933 94.634 64.9478 79.4119 72.9152 77.3331C80.8827 75.2542 80.1556 76.0578 84.7949 75.2407C84.7949 75.2407 82.9901 73.2079 77.0106 73.7624C71.0311 74.317 69.2969 74.536 63.5757 77.2154C57.8544 79.8949 40.7852 89.7958 33.2573 92.0078C25.7294 94.2198 20.5327 93.6027 19.6421 94.3164Z" stroke="#A88771" stroke-width="4" stroke-linecap="round" stroke-linejoin="round"/>
<path d="M20.4434 96.2272C19.4885 96.7874 19.8436 99.5688 32.7966 95.3799C45.7496 91.191 64.9749 79.4763 72.7036 76.8282C80.4323 74.1801 79.6109 74.7587 84.0368 73.4328C84.0368 73.4328 82.7596 72.6581 77.1494 74.0934C71.5393 75.5286 69.9012 75.9768 64.127 78.5299C58.3527 81.0829 40.7647 89.7467 33.4155 92.3848C26.0663 95.0229 21.3984 95.6669 20.4434 96.2272Z" stroke="#A88771" stroke-width="4" stroke-linecap="round" stroke-linejoin="round"/>
<path d="M140.331 58.9075C140.331 58.9075 131.357 38.9546 120.063 34.2441C104.487 27.7479 85.4143 32.9977 85.4143 32.9977" stroke="#A88771" stroke-width="6" stroke-linecap="round" stroke-linejoin="round"/>
<path d="M73.459 23.3662C75.1212 21.3982 77.4484 22.6548 79.8423 21.7036C82.2741 20.7374 83.1488 17.9393 85.7111 18.4702C88.0873 18.9625 88.0008 21.522 89.8049 23.1449C91.9464 25.0715 95.0666 24.508 95.9288 27.2565C96.7263 29.7986 94.1392 31.1016 93.8297 33.7478C93.5779 35.9015 95.1033 37.3894 94.0687 39.295C92.7383 41.7456 89.9001 40.5905 87.3626 41.7464C85.0996 42.7772 84.2389 45.0044 81.7626 44.7772C78.8878 44.5135 78.8467 41.2885 76.5626 39.523C74.6541 38.0478 72.2019 38.5408 71.2883 36.3083C70.3418 33.9954 72.5871 32.6086 73.0159 30.1466C73.4712 27.5324 71.7469 25.3934 73.459 23.3662Z" stroke="#F74700" stroke-width="5" stroke-linecap="round" stroke-linejoin="round"/>
<path d="M75.6761 25.2636C76.9866 23.7113 78.8084 24.6914 80.6897 23.936C82.6008 23.1686 83.2962 20.9665 85.3048 21.3754C87.1675 21.7546 87.0912 23.7665 88.5014 25.0362C90.1752 26.5434 92.6251 26.0903 93.2926 28.2478C93.9099 30.2432 91.8759 31.2758 91.6244 33.3566C91.4198 35.0502 92.6117 36.2147 91.7938 37.7158C90.742 39.6463 88.519 38.7477 86.5243 39.6645C84.7455 40.4821 84.0629 42.2354 82.1208 42.0649C79.8662 41.8671 79.8445 39.3325 78.0582 37.9523C76.5657 36.7991 74.6401 37.1946 73.9307 35.4429C73.1956 33.6281 74.9618 32.5308 75.3063 30.5942C75.672 28.5381 74.3261 26.8626 75.6761 25.2636Z" stroke="#F74700" stroke-width="5" stroke-linecap="round" stroke-linejoin="round"/>
<path d="M77.6238 26.749C78.6264 25.561 80.0122 26.3043 81.4478 25.723C82.9061 25.1325 83.4417 23.4502 84.9713 23.7571C86.3898 24.0417 86.3266 25.5773 87.398 26.5427C88.6697 27.6887 90.5378 27.3367 91.041 28.9814C91.5063 30.5026 89.9536 31.2958 89.7567 32.8845C89.5965 34.1775 90.5018 35.0631 89.8747 36.2108C89.0682 37.6867 87.3764 37.0066 85.854 37.7114C84.4964 38.3399 83.9717 39.6796 82.4922 39.5545C80.7745 39.4093 80.7644 37.475 79.4067 36.4263C78.2722 35.55 76.8038 35.8568 76.2676 34.5218C75.7121 33.1387 77.0608 32.2967 77.3283 30.818C77.6123 29.2479 76.5909 27.9727 77.6238 26.749Z" stroke="#B8CDB4" stroke-width="5" stroke-linecap="round" stroke-linejoin="round"/>
<path d="M78.8367 27.8448C79.6228 26.9132 80.7032 27.491 81.8258 27.0328C82.9662 26.5673 83.3887 25.2503 84.5825 25.4865C85.6897 25.7055 85.6364 26.9066 86.4707 27.6589C87.461 28.5519 88.9209 28.2719 89.3097 29.557C89.6693 30.7455 88.4547 31.3697 88.2969 32.6126C88.1685 33.6242 88.8733 34.3146 88.3807 35.2137C87.7471 36.37 86.4276 35.8424 85.2368 36.3973C84.175 36.8923 83.7618 37.9414 82.6067 37.8473C81.2656 37.738 81.2626 36.2253 80.2048 35.4086C79.321 34.7261 78.1735 34.9697 77.7581 33.927C77.3277 32.8467 78.3831 32.1849 78.5958 31.0278C78.8215 29.7991 78.027 28.8044 78.8367 27.8448Z" stroke="#B8CDB4" stroke-width="5" stroke-linecap="round" stroke-linejoin="round"/>
<path d="M79.8996 28.6076C80.5148 27.8786 81.3615 28.3317 82.2406 27.9735C83.1336 27.6097 83.4638 26.5786 84.3991 26.7642C85.2665 26.9364 85.2255 27.8769 85.8794 28.4665C86.6557 29.1663 87.799 28.9479 88.1043 29.9544C88.3867 30.8853 87.4356 31.3734 87.3127 32.3466C87.2127 33.1387 87.7652 33.6797 87.3798 34.3835C86.8842 35.2886 85.8503 34.8747 84.9179 35.3086C84.0864 35.6955 83.7634 36.5168 82.8585 36.4425C81.8079 36.3561 81.8047 35.1716 80.9757 34.5314C80.283 33.9965 79.3842 34.1866 79.0582 33.3698C78.7205 32.5236 79.5468 32.006 79.7127 31.1C79.8888 30.138 79.2659 29.3586 79.8996 28.6076Z" stroke="#B8CDB4" stroke-width="5" stroke-linecap="round" stroke-linejoin="round"/>
<path d="M81.7124 30.2253C82.5654 29.1585 84.2226 29.0613 85.151 29.9394C86.0426 30.7828 86.142 32.1207 85.312 33.1358C84.4853 34.1471 83.1765 34.3201 82.169 33.6275C81.1186 32.9054 80.8615 31.2895 81.7124 30.2253Z" stroke="#F74700" stroke-width="5" stroke-linecap="round" stroke-linejoin="round"/>
<path d="M84.0826 31.1222C83.7576 30.8148 83.2199 30.8598 82.9406 31.2091C82.6627 31.5566 82.7334 32.0853 83.1001 32.3373C83.4395 32.5707 83.8826 32.5005 84.1434 32.1816C84.4057 31.8608 84.3836 31.407 84.0826 31.1222Z" stroke="#B8CDB4" stroke-width="5" stroke-linecap="round" stroke-linejoin="round"/>
</svg>
